<svg xmlns="http://www.w3.org/2000/svg" width="54" height="16" fill="none"><path fill="#D9D9D9" fill-rule="evenodd" d="M3.322.905c.102-.395.663-.395.765 0l.562 2.18c.036.138.145.247.284.283l2.18.562c.394.102.394.663 0 .765l-2.18.562a.395.395 0 0 0-.284.284l-.562 2.18c-.102.395-.663.395-.765 0L2.76 5.54a.395.395 0 0 0-.284-.284l-2.18-.562c-.395-.102-.395-.663 0-.765l2.18-.562a.395.395 0 0 0 .284-.284l.562-2.18ZM9.755 6.58c.084-.323.542-.323.625 0l.733 2.84c.03.114.118.203.232.232l2.84.732c.323.084.323.542 0 .626l-2.84.732a.322.322 0 0 0-.232.232l-.733 2.84c-.083.323-.541.323-.625 0l-.732-2.84a.323.323 0 0 0-.232-.232l-2.84-.732c-.323-.084-.323-.542 0-.625l2.84-.733a.323.323 0 0 0 .232-.232l.732-2.84Zm19.84-4.751v13.258h-2.286l-5.946-9.497v9.497h-2.286V1.83h2.286l5.965 9.516V1.83h2.267Zm6.614 13.44c-.728 0-1.387-.118-1.976-.355a4.362 4.362 0 0 1-1.493-1.01 4.482 4.482 0 0 1-.938-1.521 5.326 5.326 0 0 1-.328-1.885v-.364c0-.771.113-1.47.337-2.095.225-.625.538-1.16.938-1.602.4-.45.874-.793 1.42-1.03a4.417 4.417 0 0 1 1.776-.355c.705 0 1.32.119 1.849.356.528.236.965.57 1.311 1.001.352.425.613.932.783 1.52.176.59.264 1.24.264 1.95v.938H33.69c.022.311.076.605.162.883.121.364.297.683.528.956.23.273.51.489.838.646.328.152.701.228 1.12.228a3.04 3.04 0 0 0 1.411-.319 3.236 3.236 0 0 0 1.075-.901l1.156 1.12c-.212.31-.488.607-.828.892-.34.28-.756.507-1.248.683-.485.176-1.05.264-1.694.264Zm-2.385-6.51a4.944 4.944 0 0 0-.09.482h4.251V9.07a3.08 3.08 0 0 0-.237-1.11 1.888 1.888 0 0 0-.646-.839c-.291-.212-.68-.318-1.166-.318-.364 0-.689.079-.974.237-.28.151-.513.373-.701.664a3.5 3.5 0 0 0-.437 1.057Zm10.23 6.328h-.565L40.82 5.236h2.149l1.58 6.854 2.035-6.854H48.224l2.052 6.912 1.563-6.912h2.14l-2.659 9.852H49.498l-2.105-6.861-2.083 6.861h-1.256ZM12.226 3.55a1.032 1.032 0 1 1-2.064 0 1.032 1.032 0 0 1 2.064 0ZM1.908 13.869a1.032 1.032 0 1 0 0-2.064 1.032 1.032 0 0 0 0 2.064Z" clip-rule="evenodd"/><path fill="url(#a)" fill-rule="evenodd" d="M3.322.905c.102-.395.663-.395.765 0l.562 2.18c.036.138.145.247.284.283l2.18.562c.394.102.394.663 0 .765l-2.18.562a.395.395 0 0 0-.284.284l-.562 2.18c-.102.395-.663.395-.765 0L2.76 5.54a.395.395 0 0 0-.284-.284l-2.18-.562c-.395-.102-.395-.663 0-.765l2.18-.562a.395.395 0 0 0 .284-.284l.562-2.18ZM9.755 6.58c.084-.323.542-.323.625 0l.733 2.84c.03.114.118.203.232.232l2.84.732c.323.084.323.542 0 .626l-2.84.732a.322.322 0 0 0-.232.232l-.733 2.84c-.083.323-.541.323-.625 0l-.732-2.84a.323.323 0 0 0-.232-.232l-2.84-.732c-.323-.084-.323-.542 0-.625l2.84-.733a.323.323 0 0 0 .232-.232l.732-2.84Zm19.84-4.751v13.258h-2.286l-5.946-9.497v9.497h-2.286V1.83h2.286l5.965 9.516V1.83h2.267Zm6.614 13.44c-.728 0-1.387-.118-1.976-.355a4.362 4.362 0 0 1-1.493-1.01 4.482 4.482 0 0 1-.938-1.521 5.326 5.326 0 0 1-.328-1.885v-.364c0-.771.113-1.47.337-2.095.225-.625.538-1.16.938-1.602.4-.45.874-.793 1.42-1.03a4.417 4.417 0 0 1 1.776-.355c.705 0 1.32.119 1.849.356.528.236.965.57 1.311 1.001.352.425.613.932.783 1.52.176.59.264 1.24.264 1.95v.938H33.69c.022.311.076.605.162.883.121.364.297.683.528.956.23.273.51.489.838.646.328.152.701.228 1.12.228a3.04 3.04 0 0 0 1.411-.319 3.236 3.236 0 0 0 1.075-.901l1.156 1.12c-.212.31-.488.607-.828.892-.34.28-.756.507-1.248.683-.485.176-1.05.264-1.694.264Zm-2.385-6.51a4.944 4.944 0 0 0-.09.482h4.251V9.07a3.08 3.08 0 0 0-.237-1.11 1.888 1.888 0 0 0-.646-.839c-.291-.212-.68-.318-1.166-.318-.364 0-.689.079-.974.237-.28.151-.513.373-.701.664a3.5 3.5 0 0 0-.437 1.057Zm10.23 6.328h-.565L40.82 5.236h2.149l1.58 6.854 2.035-6.854H48.224l2.052 6.912 1.563-6.912h2.14l-2.659 9.852H49.498l-2.105-6.861-2.083 6.861h-1.256ZM12.226 3.55a1.032 1.032 0 1 1-2.064 0 1.032 1.032 0 0 1 2.064 0ZM1.908 13.869a1.032 1.032 0 1 0 0-2.064 1.032 1.032 0 0 0 0 2.064Z" clip-rule="evenodd"/><defs><linearGradient id="a" x1="52.702" x2="0" y1="7.687" y2="7.687" gradientUnits="userSpaceOnUse"><stop stop-color="#88D5C0"/><stop offset=".25" stop-color="#FCE1A9"/><stop offset=".552" stop-color="#E25D68"/><stop offset=".781" stop-color="#9860FF"/><stop offset="1" stop-color="#1D63ED"/></linearGradient></defs></svg>